<?xml version="1.0" standalone="no"?>
<!DOCTYPE svg PUBLIC "-//W3C//DTD SVG 20010904//EN"
 "http://www.w3.org/TR/2001/REC-SVG-20010904/DTD/svg10.dtd">
<svg version="1.0" xmlns="http://www.w3.org/2000/svg"
 width="150.000000pt" height="150.000000pt" viewBox="0 0 150.000000 150.000000"
 preserveAspectRatio="xMidYMid meet">
<metadata>
Created by potrace 1.11, written by Peter Selinger 2001-2013
</metadata>
<g transform="translate(0.000000,150.000000) scale(0.100000,-0.100000)"
fill="#000000" stroke="none">
<path d="M0 750 l0 -750 750 0 750 0 0 750 0 750 -750 0 -750 0 0 -750z m1241
385 c98 -51 69 -160 -58 -224 -58 -29 -169 -51 -258 -51 l-74 0 -20 -54 c-24
-64 -51 -202 -51 -261 0 -112 58 -158 121 -96 28 29 29 30 13 67 -8 20 -13 46
-10 58 7 25 116 195 116 181 0 -5 -14 -43 -32 -82 -29 -68 -33 -93 -10 -79 6
3 23 38 38 76 15 39 31 70 37 70 5 0 7 -6 4 -12 -47 -112 -57 -142 -49 -150 5
-5 22 21 42 67 18 41 36 75 40 75 5 0 -5 -30 -21 -67 -30 -72 -35 -93 -20 -93
5 0 24 34 42 75 18 41 34 73 36 71 8 -8 -46 -199 -62 -216 -9 -10 -27 -21 -41
-24 -13 -4 -30 -19 -38 -35 -63 -120 -225 -125 -276 -7 -40 88 -32 236 20 392
12 39 14 56 6 59 -147 42 -181 46 -219 30 -35 -14 -44 -14 -90 -1 -106 31
-163 122 -102 162 65 43 175 25 227 -36 29 -33 45 -42 113 -59 43 -12 87 -21
97 -21 10 0 48 31 85 68 100 101 207 147 317 136 27 -3 62 -12 77 -19z m-658
-284 c8 -8 1 -11 -23 -11 -36 0 -100 -20 -100 -31 0 -13 51 -20 102 -13 49 7
50 6 39 -14 -6 -11 -11 -40 -11 -64 l1 -43 19 23 c11 13 25 43 32 65 l13 42 3
-40 c6 -63 -7 -119 -36 -164 -14 -22 -29 -41 -33 -41 -17 0 -41 77 -40 129 l1
56 -45 -3 c-52 -5 -94 10 -124 42 -20 22 -20 23 -4 39 42 37 77 48 137 43 32
-2 63 -9 69 -15z"/>
<path d="M1070 1061 c-62 -19 -160 -89 -160 -113 0 -13 115 -4 173 12 21 6 52
24 70 40 27 24 30 32 21 47 -12 20 -63 27 -104 14z"/>
</g>
</svg>
